<?xml version="1.0" standalone="no"?>
<!DOCTYPE svg PUBLIC "-//W3C//DTD SVG 20010904//EN"
 "http://www.w3.org/TR/2001/REC-SVG-20010904/DTD/svg10.dtd">
<svg version="1.0" xmlns="http://www.w3.org/2000/svg"
 width="392.000000pt" height="67.000000pt" viewBox="0 0 392.000000 67.000000"
 preserveAspectRatio="xMidYMid meet">

<g transform="translate(0.000000,67.000000) scale(0.100000,-0.100000)"
fill="#ffffff" stroke="none">
<path d="M2989 609 l-156 -61 -22 -160 c-12 -88 -19 -164 -14 -168 4 -4 34
-26 65 -48 l57 -42 42 15 c23 9 48 20 56 26 7 6 13 8 13 4 0 -4 6 -3 13 2 6 5
31 15 55 23 23 7 42 16 42 20 0 4 6 7 13 7 6 0 25 4 40 8 25 7 28 5 25 -11 -5
-26 -235 -116 -261 -102 -42 22 -24 -3 38 -51 l66 -52 117 45 c119 45 195 76
200 81 4 4 32 190 45 306 2 20 -169 153 -185 143 -6 -4 -8 -3 -5 4 6 9 -67 73
-82 72 -4 -1 -76 -28 -162 -61z m178 25 c2 -6 -27 -23 -64 -37 -80 -32 -85
-32 -81 -10 2 10 27 27 58 40 57 23 81 25 87 7z m50 -40 c-1 -2 -51 -23 -109
-48 -97 -40 -106 -42 -99 -23 10 28 179 99 199 84 7 -5 11 -11 9 -13z m-217
-12 c0 -20 -31 -249 -36 -261 -4 -12 -7 -12 -21 2 -15 15 -15 25 1 134 10 65
23 121 29 125 16 10 27 10 27 0z m260 -12 c8 -5 12 -11 10 -13 -14 -11 -263
-107 -268 -103 -15 16 47 66 81 66 5 0 31 11 58 25 27 13 49 22 49 19 0 -3 8
0 18 5 21 13 33 13 52 1z m-320 -22 c0 -13 -5 -51 -10 -84 -6 -34 -11 -73 -12
-87 -2 -21 -5 -24 -20 -16 -10 5 -18 14 -18 19 0 34 24 167 33 178 15 19 27
14 27 -10z m-65 -83 c-7 -75 -13 -87 -33 -62 -23 27 13 165 36 142 3 -2 1 -38
-3 -80z m480 34 c50 -38 76 -79 41 -66 -22 9 -135 91 -135 100 -2 20 46 3 94
-34z m-16 -49 c33 -25 61 -53 61 -62 0 -10 -3 -18 -6 -18 -11 0 -184 133 -184
141 0 15 26 16 46 0 12 -9 49 -36 83 -61z m-142 54 c-9 -9 75 -74 87 -67 5 3
6 1 3 -4 -7 -11 20 -28 36 -24 5 1 6 -2 3 -7 -2 -4 11 -18 30 -31 19 -13 34
-32 34 -42 0 -11 -2 -19 -5 -19 -3 0 -31 18 -61 40 -30 23 -60 38 -66 34 -6
-4 -8 -3 -5 3 4 6 -18 30 -49 54 -55 42 -55 43 -32 55 26 15 35 17 25 8z m25
-98 c15 -11 16 -21 8 -72 -6 -32 -10 -62 -10 -65 0 -7 -110 -49 -128 -49 -5 0
-33 18 -61 40 l-52 41 7 52 c4 29 7 57 8 62 0 6 30 22 66 36 l65 26 40 -29
c22 -16 48 -35 57 -42z m-253 -121 c50 -38 91 -72 91 -76 0 -22 -33 -11 -85
28 -135 100 -155 115 -155 118 0 2 3 11 6 19 6 14 9 14 29 -1 13 -10 64 -49
114 -88z m308 77 c6 -4 10 -19 8 -32 -2 -14 -9 -68 -16 -120 -11 -90 -19 -109
-45 -110 -8 0 -9 14 -3 48 4 26 13 86 19 135 12 87 15 93 37 79z m50 -34 c10
-12 -7 -183 -18 -191 -2 -1 -12 -8 -21 -15 -15 -12 -16 -10 -13 15 28 213 29
220 52 191z m-399 -78 c69 -52 81 -65 67 -72 -12 -7 -29 0 -70 31 -30 23 -57
41 -60 41 -3 0 -14 9 -25 20 -22 22 -29 69 -7 53 6 -6 50 -38 95 -73z m450 -1
c4 -55 -12 -99 -34 -99 -13 0 -15 7 -10 33 3 17 8 51 12 75 9 55 28 49 32 -9z
m-504 -24 c26 -19 50 -35 55 -35 16 0 21 -31 6 -36 -17 -7 -125 73 -125 92 0
22 15 17 64 -21z m334 -61 c-2 -11 -38 -31 -95 -54 -78 -31 -95 -35 -104 -23
-15 17 -21 13 86 56 102 41 118 44 113 21z m-7 -55 c-8 -23 -125 -74 -142 -63
-18 11 -8 23 26 34 19 6 35 15 35 19 0 3 12 8 27 9 15 1 32 7 37 12 17 17 26
11 17 -11z"/>
<path d="M1936 640 c-88 -27 -136 -94 -137 -191 -2 -95 41 -136 162 -159 80
-15 108 -60 61 -98 -21 -16 -77 -15 -91 2 -7 8 -13 29 -13 46 l-1 31 -76 -3
-76 -3 1 -58 c2 -98 56 -146 173 -155 89 -6 166 16 208 60 56 58 70 169 30
229 -23 34 -44 44 -177 81 -35 10 -46 18 -48 36 -5 33 25 62 63 62 39 0 55
-16 55 -56 0 -31 23 -53 35 -34 4 6 -1 10 -9 10 -11 0 -16 10 -16 33 0 44 -15
57 -65 57 -48 0 -75 -22 -75 -63 0 -34 30 -54 103 -68 65 -13 115 -42 135 -79
17 -33 9 -120 -16 -168 -52 -103 -273 -125 -352 -36 -16 19 -30 40 -31 47 0 7
-2 21 -5 32 -2 11 -2 30 1 42 5 21 11 23 64 23 l59 0 6 -35 c8 -40 30 -55 80
-55 56 0 91 51 63 94 -11 17 -33 27 -79 36 -131 27 -164 62 -156 169 8 107 70
161 196 169 135 9 202 -40 202 -147 l0 -51 -47 -2 -48 -1 50 -6 50 -6 7 35
c15 78 -32 161 -101 180 -43 12 -145 12 -185 0z"/>
<path d="M164 633 l28 -5 -7 -184 c-4 -103 -3 -184 2 -184 4 0 33 82 63 183
l55 182 82 3 81 3 7 -186 c4 -102 10 -185 14 -185 3 0 27 82 51 183 l45 182
69 3 c58 3 68 1 63 -13 -4 -8 -41 -134 -83 -280 l-77 -265 -84 0 c-60 0 -83 4
-83 13 -2 169 -20 406 -29 386 -4 -7 -34 -101 -66 -206 l-59 -193 -81 0 -82 0
-7 178 c-3 97 -7 214 -7 260 -1 45 -4 80 -7 77 -6 -6 -4 -241 4 -403 l7 -122
92 0 92 0 27 93 c61 203 79 257 87 257 5 0 9 -48 9 -107 0 -60 3 -138 7 -175
l6 -68 92 0 91 0 27 93 c14 50 51 178 82 282 30 105 55 194 55 198 0 4 -35 7
-77 5 l-77 -3 -36 -147 c-20 -81 -39 -151 -43 -155 -4 -3 -7 16 -7 44 0 27 -3
98 -7 157 l-6 107 -90 -3 -90 -3 -13 -40 c-7 -22 -27 -88 -45 -147 -18 -60
-35 -108 -38 -108 -3 0 -4 67 -3 150 l4 150 -34 -1 c-32 -2 -32 -2 -4 -6z"/>
<path d="M820 630 c0 -6 -16 -131 -35 -277 -19 -147 -35 -272 -35 -280 0 -10
38 -13 184 -13 l183 0 7 46 c12 90 19 84 -99 84 l-105 0 0 34 c0 64 3 66 100
66 l89 0 6 48 c4 26 9 55 12 65 4 15 -5 17 -87 17 l-91 0 3 43 3 42 111 3 111
3 7 46 c12 91 29 83 -179 83 -121 0 -185 -4 -185 -10z m356 -31 c-3 -17 -6
-42 -6 -55 0 -24 -1 -24 -115 -24 l-115 0 -1 -37 c0 -21 -2 -46 -4 -55 -3 -16
6 -18 86 -18 99 0 99 0 83 -79 l-6 -31 -90 0 c-97 0 -93 3 -102 -72 l-6 -48
111 0 112 0 -7 -38 c-3 -20 -6 -45 -6 -54 0 -16 -15 -18 -175 -18 -96 0 -175
1 -175 3 0 1 16 121 35 267 19 146 35 271 35 278 0 9 42 12 176 12 l177 0 -7
-31z"/>
<path d="M1300 630 c0 -6 -16 -131 -35 -277 -19 -147 -35 -272 -35 -280 0 -10
29 -13 134 -13 148 0 201 12 248 57 49 47 68 149 38 208 -19 37 -19 37 2 66
30 41 37 140 13 185 -28 52 -73 64 -230 64 -87 0 -135 -4 -135 -10z m305 -14
c76 -32 89 -163 23 -233 l-21 -23 22 -24 c21 -22 23 -33 19 -90 -6 -92 -50
-147 -134 -166 -34 -8 -274 -14 -274 -7 0 1 16 121 35 266 19 145 35 270 35
277 0 20 247 20 295 0z"/>
<path d="M1420 488 c0 -18 -3 -43 -6 -55 -6 -21 -3 -23 40 -23 52 0 86 25 86
63 0 35 -19 47 -72 47 -47 0 -48 0 -48 -32z m104 6 c16 -43 -9 -74 -60 -74
-31 0 -34 3 -34 29 0 50 9 61 50 61 25 0 40 -5 44 -16z"/>
<path d="M1396 278 c-3 -13 -7 -40 -10 -60 l-5 -38 54 0 c58 0 84 16 86 53 3
58 -6 67 -73 67 -41 0 -48 -3 -52 -22z m112 -28 c4 -42 -16 -60 -70 -60 l-38
0 0 43 c0 24 3 47 7 51 4 4 28 6 53 4 43 -3 45 -4 48 -38z"/>
<path d="M2317 358 c-21 -156 -37 -286 -37 -290 0 -7 150 -12 150 -5 0 12 22
178 26 199 5 27 8 28 63 28 32 0 60 -2 62 -5 3 -2 -1 -42 -7 -87 -7 -46 -13
-95 -13 -110 l-1 -28 75 0 c57 0 75 3 75 14 0 7 16 131 35 275 19 143 35 268
35 276 0 12 -15 15 -74 15 l-74 0 -13 -107 -14 -108 -64 -3 -64 -3 6 43 c3 24
9 73 13 111 l7 67 -75 0 -74 0 -37 -282z m173 261 c0 -10 -16 -130 -25 -182
l-5 -28 78 3 77 3 14 108 13 107 66 0 65 0 -7 -42 c-10 -62 -66 -491 -66 -505
0 -9 -20 -13 -65 -13 -36 0 -65 3 -65 8 0 4 7 52 15 107 8 55 15 103 15 108 0
4 -34 7 -75 7 -69 0 -75 -2 -79 -22 -5 -24 -26 -185 -26 -200 0 -4 -30 -8 -66
-8 -63 0 -66 1 -61 23 3 12 20 138 38 280 l34 257 62 0 c38 0 63 -4 63 -11z"/>
<path d="M3467 358 c-21 -155 -37 -286 -37 -290 0 -5 33 -8 74 -8 l74 0 12 87
c6 49 13 94 15 101 3 8 25 12 62 12 82 0 128 16 167 56 57 58 80 200 43 257
-36 55 -59 62 -222 65 l-151 4 -37 -284z m359 250 c38 -21 59 -67 56 -126 -6
-146 -73 -211 -218 -212 l-71 0 -7 -62 c-4 -35 -10 -80 -13 -100 l-6 -38 -64
0 -65 0 6 33 c3 17 13 86 21 152 9 66 22 170 30 230 8 61 15 118 15 128 0 18
9 19 143 15 109 -3 149 -7 173 -20z"/>
<path d="M3626 503 c-2 -10 -8 -42 -11 -70 l-7 -53 55 0 c66 0 87 19 87 76 0
52 -14 64 -71 64 -37 0 -49 -4 -53 -17z m102 -5 c17 -17 15 -68 -5 -90 -11
-12 -30 -18 -59 -18 l-43 0 5 38 c11 82 11 82 52 82 21 0 43 -5 50 -12z"/>
</g>
</svg>
