<?xml version="1.0" standalone="no"?>
<!DOCTYPE svg PUBLIC "-//W3C//DTD SVG 20010904//EN"
 "http://www.w3.org/TR/2001/REC-SVG-20010904/DTD/svg10.dtd">
<svg version="1.0" xmlns="http://www.w3.org/2000/svg"
 width="500.000000pt" height="500.000000pt" viewBox="0 0 500.000000 500.000000"
 preserveAspectRatio="xMidYMid meet">

<g transform="translate(0.000000,500.000000) scale(0.100000,-0.100000)"
fill="#0097b2" stroke="none">
<path d="M2430 4826 c-30 -18 -104 -60 -165 -93 -60 -33 -132 -73 -160 -88
-27 -16 -81 -45 -118 -66 -38 -22 -70 -39 -72 -39 -2 0 -30 -15 -62 -34 -32
-18 -83 -47 -113 -63 -44 -24 -220 -122 -290 -162 -13 -7 -15 -83 -15 -586 l0
-579 57 -31 c32 -17 63 -36 70 -43 7 -7 15 -12 19 -12 10 0 417 -225 808 -448
l114 -64 41 20 c23 12 66 35 96 53 30 17 156 87 280 156 124 69 279 156 345
193 163 93 244 138 283 157 l32 17 0 583 c0 321 -4 583 -8 583 -4 0 -72 36
-151 80 -79 44 -146 80 -147 80 -2 0 -25 13 -51 28 -26 16 -84 48 -128 72
-111 60 -340 188 -398 222 -26 15 -50 28 -53 28 -3 0 -33 16 -65 35 -33 19
-68 35 -77 34 -9 0 -42 -15 -72 -33z m130 -67 c23 -12 39 -27 37 -33 -4 -13
-485 -295 -504 -295 -9 -1 -13 17 -13 58 l0 59 203 115 c111 64 210 116 219
116 10 1 36 -9 58 -20z m181 -100 c22 -11 39 -25 37 -31 -5 -13 -667 -398
-685 -398 -9 0 -13 17 -13 54 l0 54 258 147 c141 81 273 158 292 171 42 29 60
30 111 3z m166 -90 c46 -26 63 -39 63 -49 0 -5 -35 -28 -77 -53 -73 -42 -94
-54 -190 -108 -21 -12 -162 -93 -313 -180 -151 -87 -283 -161 -292 -164 -16
-6 -18 0 -18 57 l0 64 63 36 c160 91 639 367 687 396 19 12 36 22 37 22 1 0
19 -9 40 -21z m-903 -130 c10 -102 7 -888 -4 -909 -10 -18 -12 -18 -54 6 -24
14 -49 31 -55 38 -8 9 -10 140 -9 442 l3 429 50 27 c28 15 53 28 56 28 3 0 9
-28 13 -61z m1162 -15 c152 -87 153 -88 247 -138 48 -26 91 -55 96 -64 9 -16
3 -112 -6 -112 -3 0 -35 17 -71 39 -73 42 -137 77 -337 186 -75 41 -130 76
-130 85 0 14 69 60 91 60 6 0 56 -25 110 -56z m-1358 -417 c3 -423 8 -398 -73
-350 l-45 28 0 327 0 327 48 25 c26 13 52 23 57 22 6 -2 11 -139 13 -379z
m1282 253 c85 -48 184 -103 220 -122 205 -111 200 -108 202 -141 2 -40 -1 -68
-7 -86 -4 -10 -11 -10 -33 5 -42 28 -444 252 -627 350 -33 18 -61 38 -63 46
-2 8 17 25 45 40 55 31 26 41 263 -92z m-1473 -252 c2 -154 -1 -269 -6 -273
-5 -3 -31 7 -58 23 l-48 28 -3 221 -2 221 42 26 c75 45 73 54 75 -246z m1099
253 c5 -4 45 -28 89 -51 44 -24 136 -74 205 -113 149 -83 317 -176 420 -232
l75 -40 3 -68 c2 -38 -1 -67 -7 -67 -5 0 -42 19 -83 43 -61 36 -362 202 -578
320 -65 35 -147 79 -212 116 -27 14 -48 29 -48 33 0 10 93 67 111 67 8 1 19
-3 25 -8z m61 -253 c78 -43 146 -84 151 -91 6 -7 8 -95 5 -234 l-6 -223 -146
-82 c-80 -45 -175 -98 -211 -119 -65 -37 -65 -37 -95 -19 -16 9 -50 29 -75 42
-52 29 -90 50 -222 125 l-98 55 0 229 0 228 61 36 c33 19 62 35 63 35 2 0 70
38 152 85 l148 84 66 -36 c36 -19 129 -71 207 -115z m306 -168 l47 -30 0 -435
0 -435 -51 -26 c-28 -14 -58 -23 -65 -20 -13 5 -14 74 -10 488 3 266 6 484 6
486 1 9 33 -3 73 -28z m189 -104 l43 -24 3 -330 2 -330 -44 -26 c-81 -48 -76
-73 -76 354 0 425 -5 399 72 356z m-1667 -86 c48 -27 88 -50 90 -50 2 0 58
-31 125 -70 67 -38 124 -70 126 -70 3 0 46 -24 97 -54 99 -57 129 -74 280
-155 53 -29 97 -58 97 -64 0 -7 -23 -24 -52 -39 l-52 -28 -75 42 c-98 53 -139
77 -176 99 -16 11 -37 22 -45 26 -8 3 -76 41 -150 84 -75 42 -158 89 -185 104
-28 15 -80 45 -117 67 l-68 39 0 59 c0 33 4 60 9 60 5 0 48 -22 96 -50z m1846
-13 c20 -9 41 -23 48 -31 8 -9 12 -82 13 -230 0 -119 -1 -218 -3 -220 -24 -20
-101 -56 -109 -51 -11 7 -15 537 -4 548 4 4 10 5 13 3 3 -1 22 -10 42 -19z
m-1761 -245 c74 -42 193 -109 263 -149 71 -40 131 -73 134 -73 16 0 143 -85
140 -94 -2 -6 -26 -23 -53 -38 l-49 -27 -60 33 c-33 18 -132 74 -220 123 -88
49 -180 101 -205 115 -148 83 -135 71 -138 128 -2 29 -1 59 2 67 7 16 -3 21
186 -85z m1248 -78 c2 -38 -1 -54 -15 -66 -15 -13 -291 -168 -686 -386 -68
-37 -105 -52 -120 -48 -30 8 -87 44 -87 55 0 11 30 30 143 90 42 23 116 64
163 92 47 27 88 49 91 49 2 0 37 19 76 42 40 23 104 60 142 81 146 82 171 96
215 121 62 36 74 32 78 -30z m-1350 -81 c37 -20 104 -58 150 -85 45 -26 84
-48 87 -48 2 0 43 -23 92 -50 48 -28 94 -54 102 -58 24 -13 18 -25 -28 -56
-44 -29 -44 -29 -75 -12 -17 10 -58 33 -91 51 -33 19 -118 67 -190 107 l-130
74 -3 57 c-2 36 1 57 8 57 6 0 41 -16 78 -37z m1350 -117 c6 -72 0 -80 -120
-147 -62 -34 -178 -100 -258 -145 -80 -45 -162 -91 -183 -103 -21 -11 -44 -21
-51 -21 -18 0 -106 50 -106 60 0 9 65 51 160 103 36 19 88 47 115 62 57 32
372 211 395 225 29 18 45 6 48 -34z m0 -228 c3 -45 2 -48 -37 -73 -22 -14 -42
-25 -45 -25 -2 0 -80 -43 -173 -97 -92 -53 -173 -96 -178 -96 -6 0 -30 12 -54
27 -36 23 -41 30 -30 41 12 11 124 75 335 191 33 18 80 44 105 58 61 36 73 31
77 -26z"/>
<path d="M1320 2903 c-8 -3 -44 -23 -80 -43 -36 -21 -96 -54 -135 -75 -102
-55 -131 -71 -330 -182 -99 -55 -207 -115 -240 -133 -33 -18 -89 -49 -125 -69
-36 -20 -82 -45 -103 -56 l-37 -20 2 -579 3 -578 50 -27 c84 -45 433 -240 550
-306 61 -34 142 -79 180 -100 39 -21 119 -67 179 -102 60 -35 110 -63 112 -63
1 0 41 22 89 50 48 27 88 50 90 50 2 0 30 15 62 34 32 19 110 63 173 98 63 36
131 74 150 85 19 11 89 49 155 86 66 36 172 94 235 130 l115 64 3 576 2 576
-29 20 c-16 12 -31 21 -34 21 -3 0 -49 25 -102 55 -54 30 -99 55 -101 55 -2 0
-26 14 -54 30 -28 17 -106 60 -173 97 -67 36 -138 75 -157 86 -19 11 -55 31
-80 45 -25 13 -71 40 -103 58 -32 19 -60 34 -63 34 -3 0 -40 20 -84 45 -79 45
-91 49 -120 38z m75 -86 c55 -31 55 -48 -2 -77 -27 -14 -142 -79 -257 -144
-226 -130 -226 -130 -226 -49 0 44 23 76 63 89 10 3 57 28 103 54 46 27 119
68 161 91 43 23 82 46 88 50 14 13 26 11 70 -14z m185 -102 c22 -14 40 -29 40
-34 0 -5 -71 -49 -157 -99 -87 -50 -172 -98 -190 -109 -18 -10 -100 -58 -184
-106 -83 -49 -157 -86 -165 -83 -21 8 -19 89 4 108 14 12 214 129 354 206 20
12 55 32 77 46 22 15 43 26 46 26 2 0 28 16 57 34 29 19 59 35 66 35 7 1 30
-10 52 -24z m180 -102 c27 -16 50 -33 50 -40 0 -6 -28 -27 -62 -46 -131 -72
-169 -93 -393 -222 -126 -73 -248 -143 -270 -155 -22 -13 -49 -28 -60 -34 -11
-7 -36 -22 -54 -34 -45 -27 -61 -15 -61 46 0 42 20 82 40 82 4 0 45 22 91 48
46 27 203 118 349 202 146 84 274 159 285 166 26 18 27 18 85 -13z m-916 -69
c12 -31 7 -962 -5 -970 -7 -4 -36 6 -65 22 l-54 29 0 435 0 436 53 31 c62 37
63 37 71 17z m1203 -91 c76 -42 175 -97 221 -122 l82 -46 0 -57 c0 -37 -4 -58
-12 -58 -6 0 -45 20 -87 44 -42 24 -112 63 -156 86 -44 24 -93 50 -110 60 -16
9 -65 36 -107 59 -43 24 -78 48 -78 54 0 15 68 56 92 57 10 0 80 -35 155 -77z
m-1397 -388 c0 -227 -4 -376 -10 -380 -5 -3 -32 6 -60 21 l-50 26 0 328 0 328
52 30 c29 17 56 28 60 26 4 -3 8 -173 8 -379z m1141 325 c37 -22 70 -40 73
-40 3 0 31 -15 63 -34 76 -44 183 -103 315 -174 l108 -57 0 -62 c0 -36 -4 -63
-10 -63 -6 0 -35 15 -66 33 -66 38 -105 60 -199 111 -250 137 -308 169 -375
205 -41 22 -76 46 -78 54 -3 14 70 67 92 67 6 0 40 -18 77 -40z m-1333 -324
c3 -302 4 -296 -73 -251 l-45 27 2 221 3 221 45 27 c25 15 50 26 55 25 6 -2
11 -102 13 -270z m1187 198 c55 -30 179 -99 275 -151 96 -53 180 -99 185 -103
6 -4 48 -28 95 -53 163 -87 150 -73 150 -144 0 -48 -3 -63 -14 -63 -8 0 -93
43 -188 96 -205 114 -243 135 -323 179 -251 136 -396 218 -400 226 -7 10 83
69 105 69 8 0 60 -25 115 -56z m-195 -109 c55 -30 146 -80 203 -111 56 -31
108 -61 115 -66 9 -8 12 -67 12 -234 l0 -223 -194 -110 c-107 -61 -205 -116
-219 -122 -31 -14 -25 -17 -320 154 l-137 79 2 226 c3 187 5 226 18 233 101
59 407 228 412 228 4 1 52 -24 108 -54z m474 -261 l46 -26 0 -438 0 -438 -56
-31 c-31 -17 -61 -28 -65 -25 -5 3 -9 225 -9 495 0 555 -7 514 84 463z m186
-100 c27 -14 51 -33 54 -42 7 -28 1 -636 -7 -649 -8 -13 -87 -53 -105 -53 -9
0 -12 94 -12 378 0 335 2 392 17 392 2 0 26 -12 53 -26z m-1674 -85 c41 -22
113 -62 160 -90 47 -27 87 -49 89 -49 2 0 47 -25 100 -55 54 -30 99 -55 100
-55 2 0 208 -116 345 -194 37 -21 35 -32 -7 -59 -63 -39 -65 -39 -173 24 -56
32 -103 59 -105 59 -2 0 -74 41 -160 90 -86 50 -158 90 -160 90 -2 0 -59 32
-127 70 -67 39 -130 74 -138 79 -19 10 -27 131 -10 131 7 0 45 -18 86 -41z
m1868 -25 l46 -26 -2 -226 -3 -226 -48 -28 c-27 -16 -53 -26 -58 -23 -5 4 -9
123 -9 281 0 226 2 274 14 274 7 0 34 -12 60 -26z m-1891 -172 c7 -5 73 -43
147 -84 74 -41 158 -88 185 -103 139 -78 176 -98 248 -137 42 -23 77 -47 77
-54 0 -12 -90 -64 -110 -64 -6 0 -57 26 -113 58 -57 32 -110 61 -118 65 -8 4
-39 22 -70 40 -30 17 -115 65 -187 105 l-132 73 0 64 0 64 31 -9 c17 -5 36
-13 42 -18z m1365 -145 c3 -63 7 -60 -138 -139 -36 -20 -159 -89 -275 -153
-365 -204 -385 -215 -396 -215 -19 0 -99 52 -99 64 0 7 98 65 218 131 119 65
289 160 377 210 239 138 289 165 300 161 6 -1 11 -28 13 -59z m-1272 -124
c252 -140 367 -208 371 -219 4 -13 -69 -54 -96 -54 -14 0 -264 136 -423 230
-23 13 -26 120 -4 120 7 0 76 -35 152 -77z m1272 -97 l-3 -61 -65 -35 c-157
-86 -209 -115 -273 -151 -38 -22 -70 -39 -72 -39 -2 0 -47 -25 -101 -56 l-97
-57 -54 29 c-29 16 -53 34 -53 39 0 11 13 20 115 75 33 18 89 50 125 70 36 21
97 55 135 76 39 21 126 70 194 110 69 40 131 70 138 67 10 -4 13 -22 11 -67z
m-3 -206 c0 -51 -2 -56 -30 -70 -16 -8 -75 -41 -130 -72 -144 -81 -227 -127
-251 -139 -18 -9 -30 -6 -68 16 -25 15 -46 31 -46 36 0 4 51 35 113 69 61 33
173 96 247 139 74 44 142 79 150 78 11 -2 15 -16 15 -57z"/>
<path d="M3628 2891 c-21 -11 -52 -28 -70 -39 -32 -19 -89 -50 -233 -127 -38
-21 -99 -55 -135 -75 -36 -21 -110 -62 -165 -92 -155 -85 -222 -122 -325 -180
l-95 -54 -3 -571 -2 -572 27 -19 c16 -10 60 -36 98 -57 39 -21 121 -66 183
-101 61 -35 163 -93 225 -128 61 -35 144 -80 182 -101 39 -22 135 -76 214
-122 79 -46 146 -83 148 -83 2 0 41 21 86 48 45 26 93 53 107 60 14 7 39 21
56 31 17 10 62 36 100 56 38 20 74 41 79 45 6 4 35 21 65 37 30 17 134 74 230
128 96 54 200 112 230 128 30 16 70 38 88 49 l32 20 0 573 0 574 -27 19 c-16
10 -66 39 -113 64 -110 59 -171 93 -243 134 -32 19 -60 34 -63 34 -2 0 -55 29
-117 64 -61 35 -143 80 -182 101 -38 21 -74 41 -80 45 -26 20 -236 130 -247
130 -7 -1 -30 -9 -50 -19z m92 -71 c70 -36 66 -45 -45 -106 -38 -21 -146 -82
-238 -136 -93 -54 -172 -98 -178 -98 -5 0 -9 28 -9 63 0 62 0 63 38 82 20 11
74 41 119 67 46 26 118 66 160 89 43 23 82 46 88 50 13 13 21 11 65 -11z m190
-105 c22 -14 40 -29 40 -34 0 -5 -37 -30 -82 -56 -46 -26 -198 -114 -339 -196
-140 -82 -260 -149 -266 -149 -14 0 -24 80 -13 101 8 14 167 109 390 232 30
17 89 52 130 78 41 26 81 48 88 48 7 1 30 -10 52 -24z m181 -102 c27 -16 49
-33 49 -40 0 -6 -30 -28 -67 -49 -136 -75 -155 -86 -409 -232 -115 -66 -252
-145 -304 -176 -60 -35 -98 -52 -104 -46 -15 15 -10 110 5 124 8 7 124 75 259
151 135 76 304 173 375 216 72 43 134 78 139 79 4 0 30 -12 57 -27z m-913
-548 c1 -264 0 -486 -3 -493 -4 -11 -16 -7 -53 13 -26 15 -52 33 -59 39 -9 8
-12 122 -14 433 -3 463 -6 438 60 473 70 37 66 67 69 -465z m1251 360 c101
-58 186 -105 189 -105 2 0 16 -9 32 -20 29 -21 46 -75 35 -110 -9 -28 -18 -26
-104 24 -42 24 -112 63 -156 86 -192 103 -295 163 -295 172 0 13 74 58 95 58
11 0 103 -47 204 -105z m-1449 -366 c0 -315 -2 -379 -14 -379 -7 0 -34 12 -60
26 l-46 26 0 329 0 329 52 29 c28 17 55 28 60 25 4 -3 8 -176 8 -385z m1158
322 c29 -17 55 -31 57 -31 2 0 30 -15 62 -34 60 -34 113 -64 218 -122 216
-117 199 -105 207 -154 15 -86 -3 -95 -86 -42 -39 24 -52 31 -191 106 -38 21
-92 51 -120 66 -98 56 -181 101 -258 141 -89 48 -93 61 -29 95 49 26 56 24
140 -25z m-1350 -315 c2 -225 0 -267 -12 -272 -24 -9 -106 44 -107 69 -6 158
-2 402 6 414 14 18 87 62 100 59 6 -2 11 -102 13 -270z m1187 199 c52 -30 97
-55 99 -55 2 0 48 -25 101 -55 54 -30 99 -55 100 -55 2 0 45 -24 97 -53 117
-66 156 -88 241 -134 59 -33 67 -41 68 -68 1 -16 3 -42 4 -57 6 -49 -15 -50
-90 -6 -38 22 -108 61 -155 86 -47 25 -107 58 -133 74 -26 15 -50 28 -52 28
-2 0 -26 13 -52 28 -26 16 -86 49 -133 74 -47 26 -134 73 -195 106 -60 33
-111 67 -113 75 -3 17 72 67 100 67 10 0 60 -25 113 -55z m-122 -150 c95 -52
191 -105 215 -119 l42 -26 0 -220 c0 -197 -2 -222 -17 -236 -18 -16 -278 -166
-366 -210 -54 -28 -65 -26 -135 16 -26 15 -112 65 -192 110 -80 46 -148 88
-152 94 -5 8 -4 391 1 447 1 4 65 42 144 84 78 43 171 95 207 116 36 21 69 38
73 39 5 0 86 -43 180 -95z m402 -220 c23 -14 46 -36 49 -48 8 -29 8 -821 0
-841 -8 -20 -103 -69 -120 -62 -11 4 -13 102 -14 491 l0 485 21 0 c11 0 40
-11 64 -25z m186 -102 c41 -24 49 -33 50 -58 4 -180 1 -624 -5 -633 -9 -14
-84 -52 -103 -52 -10 0 -13 73 -13 378 0 208 3 382 7 385 9 10 10 10 64 -20z
m-1641 -101 c58 -32 132 -74 165 -92 33 -18 141 -78 240 -133 99 -55 200 -111
225 -125 102 -56 160 -94 160 -106 0 -11 -36 -34 -91 -57 -11 -5 -51 13 -119
52 -56 32 -103 59 -106 59 -2 0 -74 41 -160 90 -85 50 -157 90 -159 90 -2 0
-58 32 -125 70 -67 39 -125 70 -130 70 -22 0 -46 91 -33 128 8 20 24 15 133
-46z m1835 -8 l44 -25 3 -217 c2 -119 -1 -222 -5 -229 -13 -19 -98 -64 -108
-57 -10 6 -12 537 -2 547 11 11 22 8 68 -19z m-1910 -162 c17 -10 62 -36 100
-57 39 -21 106 -58 150 -83 44 -25 96 -54 115 -64 19 -10 53 -29 75 -41 22
-13 76 -43 120 -67 110 -60 115 -63 115 -78 0 -7 -11 -17 -24 -22 -13 -5 -27
-13 -30 -19 -3 -5 -19 -12 -35 -16 -29 -6 -124 42 -398 202 -50 29 -93 53 -96
53 -3 0 -37 18 -75 40 l-70 41 -4 52 c-7 83 2 92 57 59z m1383 -142 c5 -62 -3
-84 -35 -97 -28 -11 -80 -40 -281 -154 -57 -33 -105 -59 -107 -59 -3 0 -42
-22 -87 -49 -46 -26 -118 -67 -160 -90 -43 -23 -91 -49 -107 -59 -29 -16 -32
-16 -76 8 -26 14 -49 29 -52 34 -9 14 27 41 117 88 47 25 121 65 165 90 44 25
107 60 140 78 33 18 125 70 205 115 233 133 254 144 265 141 6 -1 11 -22 13
-46z m-1209 -170 c106 -61 196 -110 198 -110 11 0 113 -71 113 -79 0 -13 -72
-53 -96 -53 -12 0 -59 22 -105 49 -46 27 -124 71 -174 98 -169 91 -165 87
-165 150 0 46 3 55 18 55 9 0 104 -50 211 -110z m1209 -62 l-3 -63 -65 -35
c-192 -105 -340 -188 -464 -258 l-80 -45 -44 24 c-24 13 -49 30 -55 37 -12 15
-14 14 88 70 33 19 101 57 150 84 50 28 113 64 141 79 28 16 104 60 170 98 65
38 129 70 142 70 22 1 23 -2 20 -61z m0 -188 c5 -51 -6 -80 -36 -93 -15 -6
-64 -33 -109 -59 -46 -26 -118 -66 -160 -89 -43 -23 -86 -48 -95 -57 -10 -8
-26 -12 -40 -8 -36 9 -90 45 -86 57 2 6 37 29 78 51 41 22 109 59 150 82 41
24 98 56 125 71 28 15 73 41 100 56 28 16 55 27 60 25 6 -1 11 -17 13 -36z"/>
</g>
</svg>
